solid craftml
facet normal 0 1 0
outer loop
vertex 15.552914270615124 -0.5000000000000009 21.70444504226559
vertex 14 -0.5000000000000009 21.5
vertex 14 -0.5 27.5
endloop
endfacet
facet normal 0 -1 0
outer loop
vertex 14 -1.5000000000000009 21.5
vertex 15.552914270615124 -1.5000000000000009 21.70444504226559
vertex 14 -1.5 27.5
endloop
endfacet
facet normal 0 1 0
outer loop
vertex 17 -0.5000000000000009 22.303847577293368
vertex 15.552914270615124 -0.5000000000000009 21.70444504226559
vertex 14 -0.5 27.5
endloop
endfacet
facet normal 0 -1 0
outer loop
vertex 15.552914270615124 -1.5000000000000009 21.70444504226559
vertex 17 -1.5000000000000009 22.303847577293368
vertex 14 -1.5 27.5
endloop
endfacet
facet normal 0 1 0
outer loop
vertex 18.242640687119284 -0.5000000000000009 23.257359312880716
vertex 17 -0.5000000000000009 22.303847577293368
vertex 14 -0.5 27.5
endloop
endfacet
facet normal 0 -1 0
outer loop
vertex 17 -1.5000000000000009 22.303847577293368
vertex 18.242640687119284 -1.5000000000000009 23.257359312880716
vertex 14 -1.5 27.5
endloop
endfacet
facet normal 0 1 0
outer loop
vertex 19.196152422706632 -0.5000000000000009 24.5
vertex 18.242640687119284 -0.5000000000000009 23.257359312880716
vertex 14 -0.5 27.5
endloop
endfacet
facet normal 0 -1 0
outer loop
vertex 18.242640687119284 -1.5000000000000009 23.257359312880716
vertex 19.196152422706632 -1.5 24.5
vertex 14 -1.5 27.5
endloop
endfacet
facet normal 0 1 0
outer loop
vertex 19.5 -0.5000000000000009 25.233552941995853
vertex 19.196152422706632 -0.5000000000000009 24.5
vertex 14 -0.5 27.5
endloop
endfacet
facet normal 0 1 0
outer loop
vertex 19.5 -0.5000000000000009 25.233552941995853
vertex 14 -0.5 27.5
vertex 19.5 -0.5000000000000009 26.026279441628823
endloop
endfacet
facet normal 0 -1 0
outer loop
vertex 19.196152422706632 -1.5 24.5
vertex 19.5 -1.5 25.233552941995853
vertex 19.5 -1.5 26.026279441628823
endloop
endfacet
facet normal 0 -1 0
outer loop
vertex 19.196152422706632 -1.5 24.5
vertex 19.5 -1.5 26.026279441628823
vertex 14 -1.5 27.5
endloop
endfacet
facet normal 0 1 0
outer loop
vertex 19.5 -0.5000000000000009 26.026279441628823
vertex 14 -0.5 27.5
vertex 19.5 -0.5 27.5
endloop
endfacet
facet normal 0 -1 0
outer loop
vertex 19.5 -1.5 27.5
vertex 14 -1.5 27.5
vertex 19.5 -1.5 26.026279441628823
endloop
endfacet
facet normal 0 1 0
outer loop
vertex 19.5 -0.5 27.5
vertex 14 -0.5 27.5
vertex 19.5 -0.5 28.973720558371177
endloop
endfacet
facet normal 0 -1 0
outer loop
vertex 19.5 -1.5 28.973720558371177
vertex 14 -1.5 27.5
vertex 19.5 -1.5 27.5
endloop
endfacet
facet normal 0 1 0
outer loop
vertex 19.196152422706632 -0.5 30.5
vertex 19.5 -0.5 29.766447058004147
vertex 19.5 -0.5 28.973720558371177
endloop
endfacet
facet normal 0 1 0
outer loop
vertex 19.196152422706632 -0.5 30.5
vertex 19.5 -0.5 28.973720558371177
vertex 14 -0.5 27.5
endloop
endfacet
facet normal 0.9238795325112876 0 0.38268343236508773
outer loop
vertex 19.196152422706632 -1.5 30.5
vertex 19.5 -1.5 29.766447058004147
vertex 19.5 -0.5 29.766447058004147
endloop
endfacet
facet normal 0.9238795325112876 0 0.38268343236508773
outer loop
vertex 19.196152422706632 -1.5 30.5
vertex 19.5 -0.5 29.766447058004147
vertex 19.196152422706632 -0.5 30.5
endloop
endfacet
facet normal 0 -1 0
outer loop
vertex 19.5 -1.5 29.766447058004147
vertex 19.196152422706632 -1.5 30.5
vertex 14 -1.5 27.5
endloop
endfacet
facet normal 0 -1 0
outer loop
vertex 19.5 -1.5 29.766447058004147
vertex 14 -1.5 27.5
vertex 19.5 -1.5 28.973720558371177
endloop
endfacet
facet normal 0 1 0
outer loop
vertex 18.242640687119287 -0.5 31.742640687119284
vertex 19.196152422706632 -0.5 30.5
vertex 14 -0.5 27.5
endloop
endfacet
facet normal 0.7933533402912364 0 0.6087614290087192
outer loop
vertex 18.242640687119287 -1.5 31.742640687119284
vertex 19.196152422706632 -1.5 30.5
vertex 19.196152422706632 -0.5 30.5
endloop
endfacet
facet normal 0.7933533402912364 0 0.6087614290087192
outer loop
vertex 18.242640687119287 -1.5 31.742640687119284
vertex 19.196152422706632 -0.5 30.5
vertex 18.242640687119287 -0.5 31.742640687119284
endloop
endfacet
facet normal 0 -1 0
outer loop
vertex 19.196152422706632 -1.5 30.5
vertex 18.242640687119287 -1.5 31.742640687119284
vertex 14 -1.5 27.5
endloop
endfacet
facet normal 0 1 0
outer loop
vertex 17 -0.5 32.69615242270663
vertex 18.242640687119287 -0.5 31.742640687119284
vertex 14 -0.5 27.5
endloop
endfacet
facet normal 0.6087614290087209 0 0.7933533402912349
outer loop
vertex 17 -1.5 32.69615242270663
vertex 18.242640687119287 -1.5 31.742640687119284
vertex 18.242640687119287 -0.5 31.742640687119284
endloop
endfacet
facet normal 0.6087614290087209 0 0.7933533402912349
outer loop
vertex 17 -1.5 32.69615242270663
vertex 18.242640687119287 -0.5 31.742640687119284
vertex 17 -0.5 32.69615242270663
endloop
endfacet
facet normal 0 -1 0
outer loop
vertex 18.242640687119287 -1.5 31.742640687119284
vertex 17 -1.5 32.69615242270663
vertex 14 -1.5 27.5
endloop
endfacet
facet normal 0 1 0
outer loop
vertex 15.552914270615126 -0.5 33.29555495773441
vertex 17 -0.5 32.69615242270663
vertex 14 -0.5 27.5
endloop
endfacet
facet normal 0.3826834323650914 0 0.9238795325112861
outer loop
vertex 15.552914270615126 -1.5 33.29555495773441
vertex 17 -1.5 32.69615242270663
vertex 17 -0.5 32.69615242270663
endloop
endfacet
facet normal 0.3826834323650914 0 0.9238795325112861
outer loop
vertex 15.552914270615126 -1.5 33.29555495773441
vertex 17 -0.5 32.69615242270663
vertex 15.552914270615126 -0.5 33.29555495773441
endloop
endfacet
facet normal 0 -1 0
outer loop
vertex 17 -1.5 32.69615242270663
vertex 15.552914270615126 -1.5 33.29555495773441
vertex 14 -1.5 27.5
endloop
endfacet
facet normal 0 1 0
outer loop
vertex 14 -0.5 33.5
vertex 15.552914270615126 -0.5 33.29555495773441
vertex 14 -0.5 27.5
endloop
endfacet
facet normal 0.13052619222005293 0 0.9914448613738103
outer loop
vertex 14 -1.5 33.5
vertex 15.552914270615126 -1.5 33.29555495773441
vertex 15.552914270615126 -0.5 33.29555495773441
endloop
endfacet
facet normal 0.13052619222005293 0 0.9914448613738103
outer loop
vertex 14 -1.5 33.5
vertex 15.552914270615126 -0.5 33.29555495773441
vertex 14 -0.5 33.5
endloop
endfacet
facet normal 0 -1 0
outer loop
vertex 15.552914270615126 -1.5 33.29555495773441
vertex 14 -1.5 33.5
vertex 14 -1.5 27.5
endloop
endfacet
facet normal 0 1 0
outer loop
vertex 12.447085729384877 -0.5000000000000009 33.29555495773441
vertex 14 -0.5 33.5
vertex 14 -0.5 27.5
endloop
endfacet
facet normal -0.13052619222005293 0 0.9914448613738103
outer loop
vertex 12.447085729384877 -1.5000000000000009 33.29555495773441
vertex 14 -1.5 33.5
vertex 14 -0.5 33.5
endloop
endfacet
facet normal -0.13052619222005293 0 0.9914448613738103
outer loop
vertex 12.447085729384877 -1.5000000000000009 33.29555495773441
vertex 14 -0.5 33.5
vertex 12.447085729384877 -0.5000000000000009 33.29555495773441
endloop
endfacet
facet normal 0 -1 0
outer loop
vertex 14 -1.5 33.5
vertex 12.447085729384877 -1.5000000000000009 33.29555495773441
vertex 14 -1.5 27.5
endloop
endfacet
facet normal 0 1 0
outer loop
vertex 11 -0.5000000000000009 32.69615242270663
vertex 12.447085729384877 -0.5000000000000009 33.29555495773441
vertex 14 -0.5 27.5
endloop
endfacet
facet normal -0.3826834323650841 0 0.9238795325112892
outer loop
vertex 11 -1.5000000000000009 32.69615242270663
vertex 12.447085729384877 -1.5000000000000009 33.29555495773441
vertex 12.447085729384877 -0.5000000000000009 33.29555495773441
endloop
endfacet
facet normal -0.3826834323650841 0 0.9238795325112892
outer loop
vertex 11 -1.5000000000000009 32.69615242270663
vertex 12.447085729384877 -0.5000000000000009 33.29555495773441
vertex 11 -0.5000000000000009 32.69615242270663
endloop
endfacet
facet normal 0 -1 0
outer loop
vertex 12.447085729384877 -1.5000000000000009 33.29555495773441
vertex 11 -1.5000000000000009 32.69615242270663
vertex 14 -1.5 27.5
endloop
endfacet
facet normal 0 1 0
outer loop
vertex 9.757359312880716 -0.5000000000000009 31.742640687119284
vertex 11 -0.5000000000000009 32.69615242270663
vertex 14 -0.5 27.5
endloop
endfacet
facet normal -0.6087614290087232 0 0.7933533402912333
outer loop
vertex 9.757359312880716 -1.5000000000000009 31.742640687119284
vertex 11 -1.5000000000000009 32.69615242270663
vertex 11 -0.5000000000000009 32.69615242270663
endloop
endfacet
facet normal -0.6087614290087232 0 0.7933533402912333
outer loop
vertex 9.757359312880716 -1.5000000000000009 31.742640687119284
vertex 11 -0.5000000000000009 32.69615242270663
vertex 9.757359312880716 -0.5000000000000009 31.742640687119284
endloop
endfacet
facet normal 0 -1 0
outer loop
vertex 11 -1.5000000000000009 32.69615242270663
vertex 9.757359312880716 -1.5000000000000009 31.742640687119284
vertex 14 -1.5 27.5
endloop
endfacet
facet normal 0 1 0
outer loop
vertex 8.80384757729337 -0.5000000000000009 30.500000000000004
vertex 9.757359312880716 -0.5000000000000009 31.742640687119284
vertex 14 -0.5 27.5
endloop
endfacet
facet normal -0.7933533402912347 0 0.6087614290087212
outer loop
vertex 8.80384757729337 -1.5000000000000009 30.500000000000004
vertex 9.757359312880716 -1.5000000000000009 31.742640687119284
vertex 9.757359312880716 -0.5000000000000009 31.742640687119284
endloop
endfacet
facet normal -0.7933533402912347 0 0.6087614290087212
outer loop
vertex 8.80384757729337 -1.5000000000000009 30.500000000000004
vertex 9.757359312880716 -0.5000000000000009 31.742640687119284
vertex 8.80384757729337 -0.5000000000000009 30.500000000000004
endloop
endfacet
facet normal 0 -1 0
outer loop
vertex 9.757359312880716 -1.5000000000000009 31.742640687119284
vertex 8.80384757729337 -1.5000000000000009 30.500000000000004
vertex 14 -1.5 27.5
endloop
endfacet
facet normal 0 1 0
outer loop
vertex 8.5 -0.5000000000000009 29.766447058004143
vertex 8.80384757729337 -0.5000000000000009 30.500000000000004
vertex 14 -0.5 27.5
endloop
endfacet
facet normal 0 1 0
outer loop
vertex 8.5 -0.5000000000000009 29.766447058004143
vertex 14 -0.5 27.5
vertex 8.5 -0.5000000000000009 28.973720558371173
endloop
endfacet
facet normal -0.9238795325112872 0 0.3826834323650887
outer loop
vertex 8.5 -1.5000000000000009 29.766447058004143
vertex 8.80384757729337 -1.5000000000000009 30.500000000000004
vertex 8.80384757729337 -0.5000000000000009 30.500000000000004
endloop
endfacet
facet normal -0.9238795325112872 0 0.3826834323650887
outer loop
vertex 8.5 -1.5000000000000009 29.766447058004143
vertex 8.80384757729337 -0.5000000000000009 30.500000000000004
vertex 8.5 -0.5000000000000009 29.766447058004143
endloop
endfacet
facet normal 0 -1 0
outer loop
vertex 8.80384757729337 -1.5000000000000009 30.500000000000004
vertex 8.5 -1.5000000000000009 29.766447058004143
vertex 8.5 -1.5000000000000009 28.973720558371173
endloop
endfacet
facet normal 0 -1 0
outer loop
vertex 8.80384757729337 -1.5000000000000009 30.500000000000004
vertex 8.5 -1.5000000000000009 28.973720558371173
vertex 14 -1.5 27.5
endloop
endfacet
facet normal 0 1 0
outer loop
vertex 8.5 -0.5000000000000009 28.973720558371173
vertex 14 -0.5 27.5
vertex 8.5 -0.5000000000000008 27.5
endloop
endfacet
facet normal 0 -1 0
outer loop
vertex 8.5 -1.5000000000000009 27.5
vertex 14 -1.5 27.5
vertex 8.5 -1.5000000000000009 28.973720558371173
endloop
endfacet
facet normal 0 1 0
outer loop
vertex 8.5 -0.5000000000000008 27.5
vertex 14 -0.5 27.5
vertex 8.5 -0.5000000000000017 26.026279441628827
endloop
endfacet
facet normal 0 -1 0
outer loop
vertex 8.5 -1.5000000000000009 26.026279441628827
vertex 14 -1.5 27.5
vertex 8.5 -1.5000000000000009 27.5
endloop
endfacet
facet normal 0 1 0
outer loop
vertex 8.803847577293368 -0.5000000000000018 24.5
vertex 8.5 -0.5000000000000018 25.233552941995857
vertex 8.5 -0.5000000000000017 26.026279441628827
endloop
endfacet
facet normal 0 1 0
outer loop
vertex 8.803847577293368 -0.5000000000000018 24.5
vertex 8.5 -0.5000000000000017 26.026279441628827
vertex 14 -0.5 27.5
endloop
endfacet
facet normal 0 -1 0
outer loop
vertex 8.5 -1.5000000000000009 25.233552941995857
vertex 8.803847577293368 -1.5000000000000009 24.5
vertex 14 -1.5 27.5
endloop
endfacet
facet normal 0 -1 0
outer loop
vertex 8.5 -1.5000000000000009 25.233552941995857
vertex 14 -1.5 27.5
vertex 8.5 -1.5000000000000009 26.026279441628827
endloop
endfacet
facet normal 0 1 0
outer loop
vertex 9.757359312880714 -0.5000000000000018 23.257359312880716
vertex 8.803847577293368 -0.5000000000000018 24.5
vertex 14 -0.5 27.5
endloop
endfacet
facet normal 0 -1 0
outer loop
vertex 8.803847577293368 -1.5000000000000009 24.5
vertex 9.757359312880714 -1.5000000000000018 23.257359312880716
vertex 14 -1.5 27.5
endloop
endfacet
facet normal 0 1 0
outer loop
vertex 10.999999999999996 -0.5000000000000018 22.303847577293368
vertex 9.757359312880714 -0.5000000000000018 23.257359312880716
vertex 14 -0.5 27.5
endloop
endfacet
facet normal 0 -1 0
outer loop
vertex 9.757359312880714 -1.5000000000000018 23.257359312880716
vertex 10.999999999999996 -1.5000000000000018 22.303847577293368
vertex 14 -1.5 27.5
endloop
endfacet
facet normal 0 1 0
outer loop
vertex 12.447085729384876 -0.5000000000000018 21.70444504226559
vertex 10.999999999999996 -0.5000000000000018 22.303847577293368
vertex 14 -0.5 27.5
endloop
endfacet
facet normal 0 -1 0
outer loop
vertex 10.999999999999996 -1.5000000000000018 22.303847577293368
vertex 12.447085729384876 -1.5000000000000018 21.70444504226559
vertex 14 -1.5 27.5
endloop
endfacet
facet normal 0 1 0
outer loop
vertex 13.999999999999998 -0.5000000000000009 21.5
vertex 12.447085729384876 -0.5000000000000018 21.70444504226559
vertex 14 -0.5 27.5
endloop
endfacet
facet normal 0 -1 0
outer loop
vertex 12.447085729384876 -1.5000000000000018 21.70444504226559
vertex 13.999999999999998 -1.5000000000000009 21.5
vertex 14 -1.5 27.5
endloop
endfacet
facet normal -1.1102230246251568e-16 1 0
outer loop
vertex 13.545591433334206 -0.5000000000000004 21.44017597727332
vertex 8.5 -0.5000000000000008 18
vertex 8.5 -0.5000000000000008 20.775911263269297
endloop
endfacet
facet normal -1.1102230246251568e-16 1 0
outer loop
vertex 8.878679656440362 -0.5000000000000008 20.825765385825207
vertex 8.5 -0.5000000000000008 20.775911263269297
vertex 8.5 -0.5000000000000008 23.702122943637438
endloop
endfacet
facet normal -1.1102230246251568e-16 1 0
outer loop
vertex 10.250933306678224 -0.5000000000000007 21.006426006202446
vertex 8.878679656440362 -0.5000000000000008 20.825765385825207
vertex 8.5 -0.5000000000000008 23.702122943637438
endloop
endfacet
facet normal -1.1102230246251568e-16 1 0
outer loop
vertex 10.250933306678224 -0.5000000000000007 21.006426006202446
vertex 8.5 -0.5000000000000008 23.702122943637438
vertex 8.5 -0.5000000000000008 25.233552941995764
endloop
endfacet
facet normal -1.1102230246251568e-16 1 0
outer loop
vertex 11.37137372026311 -0.5000000000000006 21.15393478504875
vertex 10.250933306678224 -0.5000000000000007 21.006426006202446
vertex 8.803847577293254 -0.5000000000000008 24.50000000000019
endloop
endfacet
facet normal -1.1102230246251568e-16 1 0
outer loop
vertex 12.333517715702204 -0.5000000000000006 21.280603445087024
vertex 11.37137372026311 -0.5000000000000006 21.15393478504875
vertex 9.757359312880743 -0.5000000000000007 23.257359312880716
endloop
endfacet
facet normal -1.1102230246251568e-16 1 0
outer loop
vertex 13.196152422706676 -0.5000000000000004 21.394171458769737
vertex 12.333517715702204 -0.5000000000000006 21.280603445087024
vertex 11.000000000000021 -0.5000000000000007 22.303847577293368
endloop
endfacet
facet normal -1.1102230246251568e-16 1 0
outer loop
vertex 13.692674848240765 -0.5000000000000004 21.54046012380052
vertex 13.545591433334206 -0.5000000000000004 21.44017597727332
vertex 13.196152422706676 -0.5000000000000004 21.394171458769737
endloop
endfacet
facet normal -1.1102230246251568e-16 1 0
outer loop
vertex 13.692674848240765 -0.5000000000000004 21.54046012380052
vertex 13.196152422706676 -0.5000000000000004 21.394171458769737
vertex 12.44708572938494 -0.5000000000000006 21.70444504226557
endloop
endfacet
facet normal -1.1102230246251568e-16 1 0
outer loop
vertex 19.5 -0.5000000000000001 22.224088736730668
vertex 19.5 -0.5000000000000001 18
vertex 8.5 -0.5000000000000008 18
endloop
endfacet
facet normal -1.1102230246251568e-16 1 0
outer loop
vertex 19.5 -0.5000000000000001 22.224088736730668
vertex 8.5 -0.5000000000000008 18
vertex 13.545591433334206 -0.5000000000000004 21.44017597727332
endloop
endfacet
facet normal -1.1102230246251568e-16 1 0
outer loop
vertex 19.5 -0.5000000000000001 23.33938148322609
vertex 19.5 -0.5000000000000001 22.224088736730668
vertex 15.552914270615084 -0.5000000000000003 21.70444504226557
endloop
endfacet
facet normal -1.1102230246251568e-16 1 0
outer loop
vertex 19.5 -0.5000000000000001 24.222165047240793
vertex 19.5 -0.5000000000000001 23.33938148322609
vertex 16.999999999999897 -0.5000000000000002 22.30384757729332
endloop
endfacet
facet normal -1.1102230246251568e-16 1 0
outer loop
vertex 19.5 -0.5000000000000001 24.89598187220507
vertex 19.5 -0.5000000000000001 24.222165047240793
vertex 18.24264068711927 -0.5000000000000002 23.25735931288073
endloop
endfacet
facet normal -1.1102230246251568e-16 1 0
outer loop
vertex 19.5 -0.5000000000000001 25.233552941995775
vertex 19.5 -0.5000000000000001 24.89598187220507
vertex 19.196152422706728 -0.5000000000000001 24.500000000000153
endloop
endfacet
facet normal -1.1102230246251568e-16 1 0
outer loop
vertex 14.00000000000004 -0.5000000000000004 21.499999999999986
vertex 13.545591433334206 -0.5000000000000004 21.44017597727332
vertex 13.692674848240767 -0.5000000000000004 21.54046012380052
endloop
endfacet
facet normal 1 0 0
outer loop
vertex 19.5 -0.5000000000000001 18
vertex 19.5 -0.5000000000000001 22.224088736730668
vertex 19.5 -1.063211831564089 22.224088736730668
endloop
endfacet
facet normal 1 0 0
outer loop
vertex 19.5 -0.5000000000000001 22.224088736730668
vertex 19.5 -0.5000000000000001 23.33938148322609
vertex 19.5 -1.2119175310968124 23.33938148322609
endloop
endfacet
facet normal 1 0 0
outer loop
vertex 19.5 -0.5000000000000001 22.224088736730668
vertex 19.5 -1.2119175310968124 23.33938148322609
vertex 19.5 -1.063211831564089 22.224088736730668
endloop
endfacet
facet normal 1 0 0
outer loop
vertex 19.5 -0.5000000000000001 23.33938148322609
vertex 19.5 -0.5000000000000001 24.222165047240793
vertex 19.5 -1.3296220062987725 24.222165047240793
endloop
endfacet
facet normal 1 0 0
outer loop
vertex 19.5 -0.5000000000000001 23.33938148322609
vertex 19.5 -1.3296220062987725 24.222165047240793
vertex 19.5 -1.2119175310968124 23.33938148322609
endloop
endfacet
facet normal 1 0 0
outer loop
vertex 19.5 -0.5000000000000001 24.222165047240793
vertex 19.5 -0.5000000000000001 24.89598187220507
vertex 19.5 -1.4194642496273429 24.895981872205073
endloop
endfacet
facet normal 1 0 0
outer loop
vertex 19.5 -0.5000000000000001 24.222165047240793
vertex 19.5 -1.4194642496273429 24.895981872205073
vertex 19.5 -1.3296220062987725 24.222165047240793
endloop
endfacet
facet normal 1 0 0
outer loop
vertex 19.5 -0.5000000000000001 24.89598187220507
vertex 19.5 -0.5000000000000001 25.233552941995775
vertex 19.5 -1.4644737255994356 25.233552941995768
endloop
endfacet
facet normal 1 0 0
outer loop
vertex 19.5 -0.5000000000000001 24.89598187220507
vertex 19.5 -1.4644737255994356 25.233552941995768
vertex 19.5 -1.4194642496273429 24.895981872205073
endloop
endfacet
facet normal 1 0 0
outer loop
vertex 19.5 -1.5 18
vertex 19.5 -0.5000000000000001 18
vertex 19.5 -1.063211831564089 22.224088736730668
endloop
endfacet
facet normal 1 0 0
outer loop
vertex 19.5 -1.5 18
vertex 19.5 -1.063211831564089 22.224088736730668
vertex 19.5 -1.5 22.224088736730668
endloop
endfacet
facet normal 1 0 0
outer loop
vertex 19.5 -1.063211831564089 22.224088736730668
vertex 19.5 -1.2119175310968122 23.33938148322609
vertex 19.5 -1.5 23.33938148322609
endloop
endfacet
facet normal 1 0 0
outer loop
vertex 19.5 -1.063211831564089 22.224088736730668
vertex 19.5 -1.5 23.33938148322609
vertex 19.5 -1.5 22.224088736730668
endloop
endfacet
facet normal 1 0 0
outer loop
vertex 19.5 -1.2119175310968122 23.33938148322609
vertex 19.5 -1.3296220062987725 24.222165047240793
vertex 19.5 -1.5 24.222165047240793
endloop
endfacet
facet normal 1 0 0
outer loop
vertex 19.5 -1.2119175310968122 23.33938148322609
vertex 19.5 -1.5 24.222165047240793
vertex 19.5 -1.5 23.33938148322609
endloop
endfacet
facet normal 1 0 0
outer loop
vertex 19.5 -1.3296220062987725 24.222165047240793
vertex 19.5 -1.4194642496273429 24.89598187220507
vertex 19.5 -1.5 24.895981872205073
endloop
endfacet
facet normal 1 0 0
outer loop
vertex 19.5 -1.3296220062987725 24.222165047240793
vertex 19.5 -1.5 24.895981872205073
vertex 19.5 -1.5 24.222165047240793
endloop
endfacet
facet normal 1 0 0
outer loop
vertex 19.5 -1.4194642496273429 24.89598187220507
vertex 19.5 -1.4644737255994356 25.233552941995764
vertex 19.5 -1.5 25.233552941995768
endloop
endfacet
facet normal 1 0 0
outer loop
vertex 19.5 -1.4194642496273429 24.89598187220507
vertex 19.5 -1.5 25.233552941995768
vertex 19.5 -1.5 24.895981872205073
endloop
endfacet
facet normal 0 -1 0
outer loop
vertex 19.5 -1.5 18
vertex 19.5 -1.5 22.224088736730668
vertex 14.307325151759247 -1.5000000000000004 21.540460123800514
endloop
endfacet
facet normal 0 -1 0
outer loop
vertex 15.552914270615087 -1.5000000000000004 21.704445042265572
vertex 19.5 -1.5 22.224088736730668
vertex 19.5 -1.5 23.33938148322609
endloop
endfacet
facet normal 0 -1 0
outer loop
vertex 16.999999999999897 -1.5000000000000002 22.30384757729332
vertex 19.5 -1.5 23.33938148322609
vertex 19.5 -1.5 24.222165047240793
endloop
endfacet
facet normal 0 -1 0
outer loop
vertex 18.24264068711927 -1.5000000000000002 23.25735931288073
vertex 19.5 -1.5 24.222165047240793
vertex 19.5 -1.5 24.895981872205073
endloop
endfacet
facet normal 0 -1 0
outer loop
vertex 19.19615242270674 -1.5 24.500000000000167
vertex 19.5 -1.5 24.895981872205073
vertex 19.5 -1.5 25.233552941995768
endloop
endfacet
facet normal 0 -1 0
outer loop
vertex 8.5 -1.5000000000000009 18
vertex 19.5 -1.5 18
vertex 14.307325151759247 -1.5000000000000004 21.540460123800514
endloop
endfacet
facet normal 0 -1 0
outer loop
vertex 8.5 -1.5000000000000009 18
vertex 14.307325151759247 -1.5000000000000004 21.540460123800514
vertex 8.5 -1.5000000000000009 20.775911263269297
endloop
endfacet
facet normal 0 -1 0
outer loop
vertex 8.878679656440362 -1.5000000000000009 20.825765385825207
vertex 8.5 -1.5000000000000009 23.70212294363744
vertex 8.5 -1.5000000000000009 20.775911263269297
endloop
endfacet
facet normal 0 -1 0
outer loop
vertex 8.878679656440362 -1.5000000000000009 20.825765385825207
vertex 10.250933306678226 -1.5000000000000007 21.006426006202446
vertex 8.5 -1.5000000000000009 25.233552941995764
endloop
endfacet
facet normal 0 -1 0
outer loop
vertex 8.878679656440362 -1.5000000000000009 20.825765385825207
vertex 8.5 -1.5000000000000009 25.233552941995764
vertex 8.5 -1.5000000000000009 23.70212294363744
endloop
endfacet
facet normal 0 -1 0
outer loop
vertex 8.803847577293254 -1.5000000000000009 24.50000000000019
vertex 10.250933306678226 -1.5000000000000007 21.006426006202446
vertex 11.371373720263108 -1.5000000000000007 21.15393478504875
endloop
endfacet
facet normal 0 -1 0
outer loop
vertex 9.75735931288074 -1.5000000000000009 23.25735931288072
vertex 11.371373720263108 -1.5000000000000007 21.15393478504875
vertex 12.333517715702202 -1.5000000000000007 21.280603445087024
endloop
endfacet
facet normal 0 -1 0
outer loop
vertex 11.000000000000027 -1.5000000000000009 22.303847577293364
vertex 12.333517715702202 -1.5000000000000007 21.280603445087024
vertex 13.196152422706684 -1.5000000000000007 21.394171458769737
endloop
endfacet
facet normal 0 -1 0
outer loop
vertex 12.447085729384947 -1.5000000000000007 21.70444504226557
vertex 13.196152422706684 -1.5000000000000007 21.394171458769737
vertex 14.000000000000037 -1.5000000000000004 21.499999999999986
endloop
endfacet
facet normal -1 0 0
outer loop
vertex 8.5 -1.5000000000000009 18
vertex 8.5 -1.5000000000000009 20.775911263269297
vertex 8.5 -1.129878498230761 20.775911263269297
endloop
endfacet
facet normal -1 0 0
outer loop
vertex 8.5 -1.5000000000000009 20.775911263269297
vertex 8.5 -1.5000000000000009 23.70212294363744
vertex 8.5 -0.7397169408483425 23.702122943637438
endloop
endfacet
facet normal -1 0 0
outer loop
vertex 8.5 -1.5000000000000009 20.775911263269297
vertex 8.5 -0.7397169408483425 23.702122943637438
vertex 8.5 -1.129878498230761 20.775911263269297
endloop
endfacet
facet normal -1 0 0
outer loop
vertex 8.5 -1.5000000000000009 23.70212294363744
vertex 8.5 -1.5000000000000009 25.233552941995764
vertex 8.5 -0.5355262744005655 25.233552941995764
endloop
endfacet
facet normal -1 0 0
outer loop
vertex 8.5 -1.5000000000000009 23.70212294363744
vertex 8.5 -0.5355262744005655 25.233552941995764
vertex 8.5 -0.7397169408483425 23.702122943637438
endloop
endfacet
facet normal -1 0 0
outer loop
vertex 8.5 -0.5000000000000008 18
vertex 8.5 -1.5000000000000009 18
vertex 8.5 -1.1298784982307613 20.775911263269297
endloop
endfacet
facet normal -1 0 0
outer loop
vertex 8.5 -0.5000000000000008 18
vertex 8.5 -1.1298784982307613 20.775911263269297
vertex 8.5 -0.5000000000000008 20.775911263269297
endloop
endfacet
facet normal -1 0 0
outer loop
vertex 8.5 -1.1298784982307613 20.775911263269297
vertex 8.5 -0.7397169408483417 23.70212294363744
vertex 8.5 -0.5000000000000008 23.702122943637438
endloop
endfacet
facet normal -1 0 0
outer loop
vertex 8.5 -1.1298784982307613 20.775911263269297
vertex 8.5 -0.5000000000000008 23.702122943637438
vertex 8.5 -0.5000000000000008 20.775911263269297
endloop
endfacet
facet normal -1 0 0
outer loop
vertex 8.5 -0.7397169408483417 23.70212294363744
vertex 8.5 -0.5355262744005653 25.233552941995764
vertex 8.5 -0.5000000000000008 25.233552941995764
endloop
endfacet
facet normal -1 0 0
outer loop
vertex 8.5 -0.7397169408483417 23.70212294363744
vertex 8.5 -0.5000000000000008 25.233552941995764
vertex 8.5 -0.5000000000000008 23.702122943637438
endloop
endfacet
facet normal 0 0 -1
outer loop
vertex 8.5 -0.5000000000000008 18
vertex 19.5 -0.5000000000000001 18
vertex 19.5 -1.5 18
endloop
endfacet
facet normal 0 0 -1
outer loop
vertex 8.5 -0.5000000000000008 18
vertex 19.5 -1.5 18
vertex 8.5 -1.5000000000000009 18
endloop
endfacet
facet normal 0 0 -1
outer loop
vertex 8.5 -0.5000000000000008 18
vertex 8.5 -1.5000000000000009 18
vertex 8.5 -0.5000000000000008 18
endloop
endfacet
facet normal -6.123233995736757e-17 1 0
outer loop
vertex 19.5 -1.2246467991473532e-16 16
vertex 19.5 -1.2246467991473532e-16 31
vertex 21.5 0 31
endloop
endfacet
facet normal -6.123233995736757e-17 1 0
outer loop
vertex 21.5 0 16
vertex 19.5 -1.2246467991473532e-16 16
vertex 21.5 0 31
endloop
endfacet
facet normal 1 0 0
outer loop
vertex 21.5 0 16
vertex 21.5 0 31
vertex 21.5 -2 31
endloop
endfacet
facet normal 1 0 0
outer loop
vertex 21.5 -2 16
vertex 21.5 0 16
vertex 21.5 -2 31
endloop
endfacet
facet normal 0 -1 0
outer loop
vertex 21.5 -2 16
vertex 21.5 -2 31
vertex 19.5 -2 31
endloop
endfacet
facet normal 0 -1 0
outer loop
vertex 19.5 -2 16
vertex 21.5 -2 16
vertex 19.5 -2 31
endloop
endfacet
facet normal -1 0 0
outer loop
vertex 19.5 -0.5 31
vertex 19.5 -1.2246467991473532e-16 31
vertex 19.5 -0.5 27.25
endloop
endfacet
facet normal -1 0 0
outer loop
vertex 19.5 -2 16
vertex 19.5 -2 22.22408873673067
vertex 19.5 -1.1701215017692441 22.224088736730668
endloop
endfacet
facet normal -1 0 0
outer loop
vertex 19.5 -2 22.22408873673067
vertex 19.5 -2 31
vertex 19.5 -1.5 31
endloop
endfacet
facet normal -1 0 0
outer loop
vertex 19.5 -2 22.22408873673067
vertex 19.5 -1.5 31
vertex 19.5 -1.5 22.224088736730668
endloop
endfacet
facet normal -1 0 0
outer loop
vertex 19.5 -1.0214158022365205 23.339381483226095
vertex 19.5 -1.1701215017692441 22.224088736730668
vertex 19.5 -1.5 22.224088736730668
endloop
endfacet
facet normal -1 0 0
outer loop
vertex 19.5 -1.0214158022365205 23.339381483226095
vertex 19.5 -1.5 22.224088736730668
vertex 19.5 -1.5 23.33938148322609
endloop
endfacet
facet normal -1 0 0
outer loop
vertex 19.5 -0.9037113270345607 24.222165047240793
vertex 19.5 -1.0214158022365205 23.339381483226095
vertex 19.5 -1.5 23.33938148322609
endloop
endfacet
facet normal -1 0 0
outer loop
vertex 19.5 -0.9037113270345607 24.222165047240793
vertex 19.5 -1.5 23.33938148322609
vertex 19.5 -1.5 24.222165047240793
endloop
endfacet
facet normal -1 0 0
outer loop
vertex 19.5 -0.8138690837059902 24.895981872205073
vertex 19.5 -0.9037113270345607 24.222165047240793
vertex 19.5 -1.5 24.222165047240793
endloop
endfacet
facet normal -1 0 0
outer loop
vertex 19.5 -0.8138690837059902 24.895981872205073
vertex 19.5 -1.5 24.222165047240793
vertex 19.5 -1.5 24.89598187220507
endloop
endfacet
facet normal -1 0 0
outer loop
vertex 19.5 -0.7688596077338965 25.233552941995775
vertex 19.5 -0.8138690837059902 24.895981872205073
vertex 19.5 -1.5 24.89598187220507
endloop
endfacet
facet normal -1 0 0
outer loop
vertex 19.5 -0.7688596077338965 25.233552941995775
vertex 19.5 -1.5 24.89598187220507
vertex 19.5 -1.5 25.233552941995764
endloop
endfacet
facet normal -1 0 0
outer loop
vertex 19.5 -1.5 31
vertex 19.5 -0.5 31
vertex 19.5 -0.5 29.76644705800415
endloop
endfacet
facet normal -1 0 0
outer loop
vertex 19.5 -1.5 31
vertex 19.5 -0.5 29.76644705800415
vertex 19.5 -1.5 29.76644705800415
endloop
endfacet
facet normal -1 0 0
outer loop
vertex 19.5 -1.2246467991473532e-16 16
vertex 19.5 -0.5 16
vertex 19.5 -0.5 27.25
endloop
endfacet
facet normal -1 0 0
outer loop
vertex 19.5 -1.2246467991473532e-16 16
vertex 19.5 -0.5 27.25
vertex 19.5 -1.2246467991473532e-16 31
endloop
endfacet
facet normal -1 0 0
outer loop
vertex 19.5 -0.5 16
vertex 19.5 -2 16
vertex 19.5 -1.1701215017692443 22.224088736730668
endloop
endfacet
facet normal -1 0 0
outer loop
vertex 19.5 -0.5 16
vertex 19.5 -1.1701215017692443 22.224088736730668
vertex 19.5 -0.5 22.224088736730668
endloop
endfacet
facet normal -1 0 0
outer loop
vertex 19.5 -1.1701215017692443 22.224088736730668
vertex 19.5 -1.0214158022365212 23.33938148322609
vertex 19.5 -0.5 23.339381483226095
endloop
endfacet
facet normal -1 0 0
outer loop
vertex 19.5 -1.1701215017692443 22.224088736730668
vertex 19.5 -0.5 23.339381483226095
vertex 19.5 -0.5 22.224088736730668
endloop
endfacet
facet normal -1 0 0
outer loop
vertex 19.5 -1.0214158022365212 23.33938148322609
vertex 19.5 -0.9037113270345609 24.222165047240793
vertex 19.5 -0.5 24.222165047240793
endloop
endfacet
facet normal -1 0 0
outer loop
vertex 19.5 -1.0214158022365212 23.33938148322609
vertex 19.5 -0.5 24.222165047240793
vertex 19.5 -0.5 23.339381483226095
endloop
endfacet
facet normal -1 0 0
outer loop
vertex 19.5 -0.9037113270345609 24.222165047240793
vertex 19.5 -0.8138690837059905 24.89598187220507
vertex 19.5 -0.5 24.895981872205073
endloop
endfacet
facet normal -1 0 0
outer loop
vertex 19.5 -0.9037113270345609 24.222165047240793
vertex 19.5 -0.5 24.895981872205073
vertex 19.5 -0.5 24.222165047240793
endloop
endfacet
facet normal -1 0 0
outer loop
vertex 19.5 -0.8138690837059905 24.89598187220507
vertex 19.5 -0.7688596077338977 25.233552941995764
vertex 19.5 -0.5 25.23355294199578
endloop
endfacet
facet normal -1 0 0
outer loop
vertex 19.5 -0.8138690837059905 24.89598187220507
vertex 19.5 -0.5 25.23355294199578
vertex 19.5 -0.5 24.895981872205073
endloop
endfacet
facet normal 0 0 -1
outer loop
vertex 19.5 -1.2246467991473532e-16 16
vertex 21.5 0 16
vertex 21.5 -2 16
endloop
endfacet
facet normal 0 0 -1
outer loop
vertex 19.5 -1.2246467991473532e-16 16
vertex 21.5 -2 16
vertex 19.5 -2 16
endloop
endfacet
facet normal 0 0 -1
outer loop
vertex 19.5 -1.2246467991473532e-16 16
vertex 19.5 -2 16
vertex 19.5 -1.2246467991473532e-16 16
endloop
endfacet
facet normal 0 0 1
outer loop
vertex 19.5 -1.2246467991473532e-16 31
vertex 19.5 -2 31
vertex 21.5 -2 31
endloop
endfacet
facet normal 0 0 1
outer loop
vertex 19.5 -1.2246467991473532e-16 31
vertex 21.5 -2 31
vertex 21.5 0 31
endloop
endfacet
facet normal 0 0 1
outer loop
vertex 19.5 -1.2246467991473532e-16 31
vertex 21.5 0 31
vertex 19.5 -1.2246467991473532e-16 31
endloop
endfacet
facet normal -6.123233995736757e-17 1 0
outer loop
vertex 6.5 -9.184850993605148e-16 16
vertex 6.5 -9.184850993605148e-16 31
vertex 8.5 -7.960204194457795e-16 31
endloop
endfacet
facet normal -6.123233995736757e-17 1 0
outer loop
vertex 8.5 -7.960204194457795e-16 16
vertex 6.5 -9.184850993605148e-16 16
vertex 8.5 -7.960204194457795e-16 31
endloop
endfacet
facet normal 1 0 0
outer loop
vertex 8.5 -7.960204194457795e-16 16
vertex 8.5 -7.960204194457795e-16 31
vertex 8.5 -0.5 31
endloop
endfacet
facet normal 1 0 0
outer loop
vertex 8.5 -7.960204194457795e-16 16
vertex 8.5 -0.5 31
vertex 8.5 -0.5 19.749999999999993
endloop
endfacet
facet normal 1 0 0
outer loop
vertex 8.5 -0.6367881684359076 20.7759112632693
vertex 8.5 -0.5 19.749999999999993
vertex 8.5 -0.5 20.7759112632693
endloop
endfacet
facet normal 1 0 0
outer loop
vertex 8.5 -1.5 31
vertex 8.5 -2.000000000000001 31
vertex 8.5 -1.5 27.249999999999993
endloop
endfacet
facet normal 1 0 0
outer loop
vertex 8.5 -0.5 31
vertex 8.5 -1.5 31
vertex 8.5 -1.5 30.777834952759243
endloop
endfacet
facet normal 1 0 0
outer loop
vertex 8.5 -0.5 31
vertex 8.5 -1.5 30.777834952759243
vertex 8.5 -0.5 30.777834952759243
endloop
endfacet
facet normal 1 0 0
outer loop
vertex 8.5 -1.5 30.777834952759243
vertex 8.5 -1.5 30.104018127794927
vertex 8.5 -0.5 30.104018127794927
endloop
endfacet
facet normal 1 0 0
outer loop
vertex 8.5 -1.5 30.777834952759243
vertex 8.5 -0.5 30.104018127794927
vertex 8.5 -0.5 30.777834952759243
endloop
endfacet
facet normal 1 0 0
outer loop
vertex 8.5 -1.5 30.104018127794927
vertex 8.5 -1.5 29.766447058004132
vertex 8.5 -0.5 29.766447058004132
endloop
endfacet
facet normal 1 0 0
outer loop
vertex 8.5 -1.5 30.104018127794927
vertex 8.5 -0.5 29.766447058004132
vertex 8.5 -0.5 30.104018127794927
endloop
endfacet
facet normal 1 0 0
outer loop
vertex 8.5 -1.026949725818327 23.70212294363745
vertex 8.5 -0.6367881684359076 20.7759112632693
vertex 8.5 -0.5 20.7759112632693
endloop
endfacet
facet normal 1 0 0
outer loop
vertex 8.5 -1.026949725818327 23.70212294363745
vertex 8.5 -0.5 20.7759112632693
vertex 8.5 -0.5 23.702122943637445
endloop
endfacet
facet normal 1 0 0
outer loop
vertex 8.5 -1.2311403922661024 25.23355294199576
vertex 8.5 -1.026949725818327 23.70212294363745
vertex 8.5 -0.5 23.702122943637445
endloop
endfacet
facet normal 1 0 0
outer loop
vertex 8.5 -1.2311403922661024 25.23355294199576
vertex 8.5 -0.5 23.702122943637445
vertex 8.5 -0.5 25.233552941995768
endloop
endfacet
facet normal 1 0 0
outer loop
vertex 8.5 -0.5 16
vertex 8.5 -7.960204194457795e-16 16
vertex 8.5 -0.5 19.749999999999993
endloop
endfacet
facet normal 1 0 0
outer loop
vertex 8.5 -2.000000000000001 16
vertex 8.5 -0.5 16
vertex 8.5 -0.5 19.749999999999993
endloop
endfacet
facet normal 1 0 0
outer loop
vertex 8.5 -2.000000000000001 16
vertex 8.5 -0.5 19.749999999999993
vertex 8.5 -0.6367881684359076 20.7759112632693
endloop
endfacet
facet normal 1 0 0
outer loop
vertex 8.5 -2.000000000000001 16
vertex 8.5 -0.6367881684359076 20.7759112632693
vertex 8.5 -2.000000000000001 20.7759112632693
endloop
endfacet
facet normal 1 0 0
outer loop
vertex 8.5 -1.5 27.249999999999993
vertex 8.5 -2.000000000000001 31
vertex 8.5 -2.000000000000001 20.7759112632693
endloop
endfacet
facet normal 1 0 0
outer loop
vertex 8.5 -1.5 27.249999999999993
vertex 8.5 -2.000000000000001 20.7759112632693
vertex 8.5 -1.5 20.7759112632693
endloop
endfacet
facet normal 1 0 0
outer loop
vertex 8.5 -0.6367881684359076 20.7759112632693
vertex 8.5 -1.026949725818327 23.70212294363745
vertex 8.5 -1.5 23.70212294363745
endloop
endfacet
facet normal 1 0 0
outer loop
vertex 8.5 -0.6367881684359076 20.7759112632693
vertex 8.5 -1.5 23.70212294363745
vertex 8.5 -1.5 20.7759112632693
endloop
endfacet
facet normal 1 0 0
outer loop
vertex 8.5 -1.026949725818327 23.70212294363745
vertex 8.5 -1.2311403922661026 25.233552941995764
vertex 8.5 -1.5 25.23355294199576
endloop
endfacet
facet normal 1 0 0
outer loop
vertex 8.5 -1.026949725818327 23.70212294363745
vertex 8.5 -1.5 25.23355294199576
vertex 8.5 -1.5 23.70212294363745
endloop
endfacet
facet normal 0 -1 0
outer loop
vertex 8.5 -2.000000000000001 16
vertex 8.5 -2.000000000000001 31
vertex 6.5 -2.000000000000001 31
endloop
endfacet
facet normal 0 -1 0
outer loop
vertex 6.5 -2.000000000000001 16
vertex 8.5 -2.000000000000001 16
vertex 6.5 -2.000000000000001 31
endloop
endfacet
facet normal -1 0 0
outer loop
vertex 6.5 -2.000000000000001 16
vertex 6.5 -2.000000000000001 31
vertex 6.5 -9.184850993605148e-16 31
endloop
endfacet
facet normal -1 0 0
outer loop
vertex 6.5 -9.184850993605148e-16 16
vertex 6.5 -2.000000000000001 16
vertex 6.5 -9.184850993605148e-16 31
endloop
endfacet
facet normal 0 0 -1
outer loop
vertex 6.5 -9.184850993605148e-16 16
vertex 8.5 -7.960204194457795e-16 16
vertex 8.5 -2.000000000000001 16
endloop
endfacet
facet normal 0 0 -1
outer loop
vertex 6.5 -9.184850993605148e-16 16
vertex 8.5 -2.000000000000001 16
vertex 6.5 -2.000000000000001 16
endloop
endfacet
facet normal 0 0 -1
outer loop
vertex 6.5 -9.184850993605148e-16 16
vertex 6.5 -2.000000000000001 16
vertex 6.5 -9.184850993605148e-16 16
endloop
endfacet
facet normal 0 0 1
outer loop
vertex 6.5 -9.184850993605148e-16 31
vertex 6.5 -2.000000000000001 31
vertex 8.5 -2.000000000000001 31
endloop
endfacet
facet normal 0 0 1
outer loop
vertex 6.5 -9.184850993605148e-16 31
vertex 8.5 -2.000000000000001 31
vertex 8.5 -7.960204194457795e-16 31
endloop
endfacet
facet normal 0 0 1
outer loop
vertex 6.5 -9.184850993605148e-16 31
vertex 8.5 -7.960204194457795e-16 31
vertex 6.5 -9.184850993605148e-16 31
endloop
endfacet
facet normal -6.123233995736757e-17 1 0
outer loop
vertex 6.5 -9.18485099360515e-16 14
vertex 6.5 -9.18485099360515e-16 16
vertex 21.5 0 16
endloop
endfacet
facet normal -6.123233995736757e-17 1 0
outer loop
vertex 21.5 0 14
vertex 6.5 -9.18485099360515e-16 14
vertex 21.5 0 16
endloop
endfacet
facet normal 1 0 0
outer loop
vertex 21.5 0 14
vertex 21.5 0 16
vertex 21.5 -15 16
endloop
endfacet
facet normal 1 0 0
outer loop
vertex 21.5 -15 14
vertex 21.5 0 14
vertex 21.5 -15 16
endloop
endfacet
facet normal 0 -1 0
outer loop
vertex 21.5 -15 14
vertex 21.5 -15 16
vertex 6.500000000000002 -15.000000000000002 16
endloop
endfacet
facet normal 0 -1 0
outer loop
vertex 6.500000000000002 -15.000000000000002 14
vertex 21.5 -15 14
vertex 6.500000000000002 -15.000000000000002 16
endloop
endfacet
facet normal -1 0 0
outer loop
vertex 6.500000000000002 -15.000000000000002 14
vertex 6.500000000000002 -15.000000000000002 16
vertex 6.5 -9.18485099360515e-16 16
endloop
endfacet
facet normal -1 0 0
outer loop
vertex 6.5 -9.18485099360515e-16 14
vertex 6.500000000000002 -15.000000000000002 14
vertex 6.5 -9.18485099360515e-16 16
endloop
endfacet
facet normal 0 0 -1
outer loop
vertex 6.5 -9.18485099360515e-16 14
vertex 21.5 0 14
vertex 21.5 -15 14
endloop
endfacet
facet normal 0 0 -1
outer loop
vertex 6.5 -9.18485099360515e-16 14
vertex 21.5 -15 14
vertex 6.500000000000002 -15.000000000000002 14
endloop
endfacet
facet normal 0 0 -1
outer loop
vertex 6.5 -9.18485099360515e-16 14
vertex 6.500000000000002 -15.000000000000002 14
vertex 6.5 -9.18485099360515e-16 14
endloop
endfacet
facet normal 0 0 1
outer loop
vertex 6.5 -9.18485099360515e-16 16
vertex 6.500000000000002 -15.000000000000002 16
vertex 21.5 -15 16
endloop
endfacet
facet normal 0 0 1
outer loop
vertex 6.5 -9.18485099360515e-16 16
vertex 21.5 -15 16
vertex 21.5 0 16
endloop
endfacet
facet normal 0 0 1
outer loop
vertex 6.5 -9.18485099360515e-16 16
vertex 21.5 0 16
vertex 6.5 -9.18485099360515e-16 16
endloop
endfacet
facet normal -6.123233995736757e-17 1 0
outer loop
vertex 19.5 -1.2246467991473532e-16 0
vertex 19.5 -1.2246467991473532e-16 14
vertex 21.5 0 14
endloop
endfacet
facet normal -6.123233995736757e-17 1 0
outer loop
vertex 21.5 0 0
vertex 19.5 -1.2246467991473532e-16 0
vertex 21.5 0 14
endloop
endfacet
facet normal 1 0 0
outer loop
vertex 21.5 0 0
vertex 21.5 0 14
vertex 21.5 -2 14
endloop
endfacet
facet normal 1 0 0
outer loop
vertex 21.5 -2 0
vertex 21.5 0 0
vertex 21.5 -2 14
endloop
endfacet
facet normal 0 -1 0
outer loop
vertex 21.5 -2 0
vertex 21.5 -2 14
vertex 19.5 -2 14
endloop
endfacet
facet normal 0 -1 0
outer loop
vertex 19.5 -2 0
vertex 21.5 -2 0
vertex 19.5 -2 14
endloop
endfacet
facet normal -1 0 0
outer loop
vertex 19.5 -2 0
vertex 19.5 -2 14
vertex 19.5 -1.2246467991473532e-16 14
endloop
endfacet
facet normal -1 0 0
outer loop
vertex 19.5 -1.2246467991473532e-16 0
vertex 19.5 -2 0
vertex 19.5 -1.2246467991473532e-16 14
endloop
endfacet
facet normal 0 0 -1
outer loop
vertex 19.5 -1.2246467991473532e-16 0
vertex 21.5 0 0
vertex 21.5 -2 0
endloop
endfacet
facet normal 0 0 -1
outer loop
vertex 19.5 -1.2246467991473532e-16 0
vertex 21.5 -2 0
vertex 19.5 -2 0
endloop
endfacet
facet normal 0 0 -1
outer loop
vertex 19.5 -1.2246467991473532e-16 0
vertex 19.5 -2 0
vertex 19.5 -1.2246467991473532e-16 0
endloop
endfacet
facet normal 0 0 1
outer loop
vertex 19.5 -1.2246467991473532e-16 14
vertex 19.5 -2 14
vertex 21.5 -2 14
endloop
endfacet
facet normal 0 0 1
outer loop
vertex 19.5 -1.2246467991473532e-16 14
vertex 21.5 -2 14
vertex 21.5 0 14
endloop
endfacet
facet normal 0 0 1
outer loop
vertex 19.5 -1.2246467991473532e-16 14
vertex 21.5 0 14
vertex 19.5 -1.2246467991473532e-16 14
endloop
endfacet
facet normal 0 1 0
outer loop
vertex 19.75 -2 2.5
vertex 19.75 -2 4
vertex 21.25 -2 4
endloop
endfacet
facet normal 0 1 0
outer loop
vertex 21.25 -2 2.5
vertex 19.75 -2 2.5
vertex 21.25 -2 4
endloop
endfacet
facet normal 1 0 0
outer loop
vertex 21.25 -2 2.5
vertex 21.25 -2 4
vertex 21.25 -13 4
endloop
endfacet
facet normal 1 0 0
outer loop
vertex 21.25 -13 2.5
vertex 21.25 -2 2.5
vertex 21.25 -13 4
endloop
endfacet
facet normal 0 -1 0
outer loop
vertex 21.25 -13 2.5
vertex 21.25 -13 4
vertex 19.75 -13 4
endloop
endfacet
facet normal 0 -1 0
outer loop
vertex 19.75 -13 2.5
vertex 21.25 -13 2.5
vertex 19.75 -13 4
endloop
endfacet
facet normal -1 0 0
outer loop
vertex 19.75 -13 2.5
vertex 19.75 -13 4
vertex 19.75 -2 4
endloop
endfacet
facet normal -1 0 0
outer loop
vertex 19.75 -2 2.5
vertex 19.75 -13 2.5
vertex 19.75 -2 4
endloop
endfacet
facet normal 0 0 -1
outer loop
vertex 19.75 -2 2.5
vertex 21.25 -2 2.5
vertex 21.25 -13 2.5
endloop
endfacet
facet normal 0 0 -1
outer loop
vertex 19.75 -2 2.5
vertex 21.25 -13 2.5
vertex 19.75 -13 2.5
endloop
endfacet
facet normal 0 0 -1
outer loop
vertex 19.75 -2 2.5
vertex 19.75 -13 2.5
vertex 19.75 -2 2.5
endloop
endfacet
facet normal 0 0 1
outer loop
vertex 19.75 -2 4
vertex 19.75 -13 4
vertex 21.25 -13 4
endloop
endfacet
facet normal 0 0 1
outer loop
vertex 19.75 -2 4
vertex 21.25 -13 4
vertex 21.25 -2 4
endloop
endfacet
facet normal 0 0 1
outer loop
vertex 19.75 -2 4
vertex 21.25 -2 4
vertex 19.75 -2 4
endloop
endfacet
facet normal 0 1 0
outer loop
vertex 19.5 -13 0
vertex 19.5 -13 14
vertex 21.5 -13 14
endloop
endfacet
facet normal 0 1 0
outer loop
vertex 21.5 -13 0
vertex 19.5 -13 0
vertex 21.5 -13 14
endloop
endfacet
facet normal 1 0 0
outer loop
vertex 21.5 -13 0
vertex 21.5 -13 14
vertex 21.5 -15 14
endloop
endfacet
facet normal 1 0 0
outer loop
vertex 21.5 -15 0
vertex 21.5 -13 0
vertex 21.5 -15 14
endloop
endfacet
facet normal 0 -1 0
outer loop
vertex 21.5 -15 0
vertex 21.5 -15 14
vertex 19.5 -15 14
endloop
endfacet
facet normal 0 -1 0
outer loop
vertex 19.5 -15 0
vertex 21.5 -15 0
vertex 19.5 -15 14
endloop
endfacet
facet normal -1 0 0
outer loop
vertex 19.5 -15 0
vertex 19.5 -15 14
vertex 19.5 -13 14
endloop
endfacet
facet normal -1 0 0
outer loop
vertex 19.5 -13 0
vertex 19.5 -15 0
vertex 19.5 -13 14
endloop
endfacet
facet normal 0 0 -1
outer loop
vertex 19.5 -13 0
vertex 21.5 -13 0
vertex 21.5 -15 0
endloop
endfacet
facet normal 0 0 -1
outer loop
vertex 19.5 -13 0
vertex 21.5 -15 0
vertex 19.5 -15 0
endloop
endfacet
facet normal 0 0 -1
outer loop
vertex 19.5 -13 0
vertex 19.5 -15 0
vertex 19.5 -13 0
endloop
endfacet
facet normal 0 0 1
outer loop
vertex 19.5 -13 14
vertex 19.5 -15 14
vertex 21.5 -15 14
endloop
endfacet
facet normal 0 0 1
outer loop
vertex 19.5 -13 14
vertex 21.5 -15 14
vertex 21.5 -13 14
endloop
endfacet
facet normal 0 0 1
outer loop
vertex 19.5 -13 14
vertex 21.5 -13 14
vertex 19.5 -13 14
endloop
endfacet
facet normal -6.123233995736757e-17 1 0
outer loop
vertex 6.5 -9.184850993605148e-16 0
vertex 6.5 -9.184850993605148e-16 14
vertex 8.5 -7.960204194457795e-16 14
endloop
endfacet
facet normal -6.123233995736757e-17 1 0
outer loop
vertex 8.5 -7.960204194457795e-16 0
vertex 6.5 -9.184850993605148e-16 0
vertex 8.5 -7.960204194457795e-16 14
endloop
endfacet
facet normal 1 0 0
outer loop
vertex 8.5 -7.960204194457795e-16 0
vertex 8.5 -7.960204194457795e-16 14
vertex 8.5 -2.000000000000001 14
endloop
endfacet
facet normal 1 0 0
outer loop
vertex 8.5 -2.000000000000001 0
vertex 8.5 -7.960204194457795e-16 0
vertex 8.5 -2.000000000000001 14
endloop
endfacet
facet normal 0 -1 0
outer loop
vertex 8.5 -2.000000000000001 0
vertex 8.5 -2.000000000000001 14
vertex 6.5 -2.000000000000001 14
endloop
endfacet
facet normal 0 -1 0
outer loop
vertex 6.5 -2.000000000000001 0
vertex 8.5 -2.000000000000001 0
vertex 6.5 -2.000000000000001 14
endloop
endfacet
facet normal -1 0 0
outer loop
vertex 6.5 -2.000000000000001 0
vertex 6.5 -2.000000000000001 14
vertex 6.5 -9.184850993605148e-16 14
endloop
endfacet
facet normal -1 0 0
outer loop
vertex 6.5 -9.184850993605148e-16 0
vertex 6.5 -2.000000000000001 0
vertex 6.5 -9.184850993605148e-16 14
endloop
endfacet
facet normal 0 0 -1
outer loop
vertex 6.5 -9.184850993605148e-16 0
vertex 8.5 -7.960204194457795e-16 0
vertex 8.5 -2.000000000000001 0
endloop
endfacet
facet normal 0 0 -1
outer loop
vertex 6.5 -9.184850993605148e-16 0
vertex 8.5 -2.000000000000001 0
vertex 6.5 -2.000000000000001 0
endloop
endfacet
facet normal 0 0 -1
outer loop
vertex 6.5 -9.184850993605148e-16 0
vertex 6.5 -2.000000000000001 0
vertex 6.5 -9.184850993605148e-16 0
endloop
endfacet
facet normal 0 0 1
outer loop
vertex 6.5 -9.184850993605148e-16 14
vertex 6.5 -2.000000000000001 14
vertex 8.5 -2.000000000000001 14
endloop
endfacet
facet normal 0 0 1
outer loop
vertex 6.5 -9.184850993605148e-16 14
vertex 8.5 -2.000000000000001 14
vertex 8.5 -7.960204194457795e-16 14
endloop
endfacet
facet normal 0 0 1
outer loop
vertex 6.5 -9.184850993605148e-16 14
vertex 8.5 -7.960204194457795e-16 14
vertex 6.5 -9.184850993605148e-16 14
endloop
endfacet
facet normal 0 1 0
outer loop
vertex 6.75 -2.000000000000001 2.5
vertex 6.75 -2.000000000000001 4
vertex 8.25 -2.000000000000001 4
endloop
endfacet
facet normal 0 1 0
outer loop
vertex 8.25 -2.000000000000001 2.5
vertex 6.75 -2.000000000000001 2.5
vertex 8.25 -2.000000000000001 4
endloop
endfacet
facet normal 1 0 0
outer loop
vertex 8.25 -2.000000000000001 2.5
vertex 8.25 -2.000000000000001 4
vertex 8.25 -13 4
endloop
endfacet
facet normal 1 0 0
outer loop
vertex 8.25 -13 2.5
vertex 8.25 -2.000000000000001 2.5
vertex 8.25 -13 4
endloop
endfacet
facet normal 0 -1 0
outer loop
vertex 8.25 -13 2.5
vertex 8.25 -13 4
vertex 6.750000000000001 -13 4
endloop
endfacet
facet normal 0 -1 0
outer loop
vertex 6.750000000000001 -13 2.5
vertex 8.25 -13 2.5
vertex 6.750000000000001 -13 4
endloop
endfacet
facet normal -1 0 0
outer loop
vertex 6.750000000000001 -13 2.5
vertex 6.750000000000001 -13 4
vertex 6.75 -2.000000000000001 4
endloop
endfacet
facet normal -1 0 0
outer loop
vertex 6.75 -2.000000000000001 2.5
vertex 6.750000000000001 -13 2.5
vertex 6.75 -2.000000000000001 4
endloop
endfacet
facet normal 0 0 -1
outer loop
vertex 6.75 -2.000000000000001 2.5
vertex 8.25 -2.000000000000001 2.5
vertex 8.25 -13 2.5
endloop
endfacet
facet normal 0 0 -1
outer loop
vertex 6.75 -2.000000000000001 2.5
vertex 8.25 -13 2.5
vertex 6.750000000000001 -13 2.5
endloop
endfacet
facet normal 0 0 -1
outer loop
vertex 6.75 -2.000000000000001 2.5
vertex 6.750000000000001 -13 2.5
vertex 6.75 -2.000000000000001 2.5
endloop
endfacet
facet normal 0 0 1
outer loop
vertex 6.75 -2.000000000000001 4
vertex 6.750000000000001 -13 4
vertex 8.25 -13 4
endloop
endfacet
facet normal 0 0 1
outer loop
vertex 6.75 -2.000000000000001 4
vertex 8.25 -13 4
vertex 8.25 -2.000000000000001 4
endloop
endfacet
facet normal 0 0 1
outer loop
vertex 6.75 -2.000000000000001 4
vertex 8.25 -2.000000000000001 4
vertex 6.75 -2.000000000000001 4
endloop
endfacet
facet normal 0 1 0
outer loop
vertex 6.5 -13 0
vertex 6.5 -13 14
vertex 8.5 -13 14
endloop
endfacet
facet normal 0 1 0
outer loop
vertex 8.5 -13 0
vertex 6.5 -13 0
vertex 8.5 -13 14
endloop
endfacet
facet normal 1 0 0
outer loop
vertex 8.5 -13 0
vertex 8.5 -13 14
vertex 8.5 -15 14
endloop
endfacet
facet normal 1 0 0
outer loop
vertex 8.5 -15 0
vertex 8.5 -13 0
vertex 8.5 -15 14
endloop
endfacet
facet normal 0 -1 0
outer loop
vertex 8.5 -15 0
vertex 8.5 -15 14
vertex 6.5 -15 14
endloop
endfacet
facet normal 0 -1 0
outer loop
vertex 6.5 -15 0
vertex 8.5 -15 0
vertex 6.5 -15 14
endloop
endfacet
facet normal -1 0 0
outer loop
vertex 6.5 -15 0
vertex 6.5 -15 14
vertex 6.5 -13 14
endloop
endfacet
facet normal -1 0 0
outer loop
vertex 6.5 -13 0
vertex 6.5 -15 0
vertex 6.5 -13 14
endloop
endfacet
facet normal 0 0 -1
outer loop
vertex 6.5 -13 0
vertex 8.5 -13 0
vertex 8.5 -15 0
endloop
endfacet
facet normal 0 0 -1
outer loop
vertex 6.5 -13 0
vertex 8.5 -15 0
vertex 6.5 -15 0
endloop
endfacet
facet normal 0 0 -1
outer loop
vertex 6.5 -13 0
vertex 6.5 -15 0
vertex 6.5 -13 0
endloop
endfacet
facet normal 0 0 1
outer loop
vertex 6.5 -13 14
vertex 6.5 -15 14
vertex 8.5 -15 14
endloop
endfacet
facet normal 0 0 1
outer loop
vertex 6.5 -13 14
vertex 8.5 -15 14
vertex 8.5 -13 14
endloop
endfacet
facet normal 0 0 1
outer loop
vertex 6.5 -13 14
vertex 8.5 -13 14
vertex 6.5 -13 14
endloop
endfacet
endsolid craftml
